<svg width="115" height="34" viewBox="0 0 115 34" fill="none" xmlns="http://www.w3.org/2000/svg">
<path d="M11.9095 33.28C9.8562 33.28 8.0162 32.9467 6.38953 32.28C4.76286 31.6133 3.4562 30.6267 2.46953 29.32C1.50953 28.0133 1.00286 26.44 0.949531 24.6H8.22953C8.3362 25.64 8.6962 26.44 9.30953 27C9.92287 27.5333 10.7229 27.8 11.7095 27.8C12.7229 27.8 13.5229 27.5733 14.1095 27.12C14.6962 26.64 14.9895 25.9867 14.9895 25.16C14.9895 24.4667 14.7495 23.8933 14.2695 23.44C13.8162 22.9867 13.2429 22.6133 12.5495 22.32C11.8829 22.0267 10.9229 21.6933 9.66953 21.32C7.8562 20.76 6.3762 20.2 5.22953 19.64C4.08286 19.08 3.0962 18.2533 2.26953 17.16C1.44286 16.0667 1.02953 14.64 1.02953 12.88C1.02953 10.2667 1.9762 8.22667 3.86953 6.76C5.76286 5.26667 8.22953 4.52 11.2695 4.52C14.3629 4.52 16.8562 5.26667 18.7495 6.76C20.6429 8.22667 21.6562 10.28 21.7895 12.92H14.3895C14.3362 12.0133 14.0029 11.3067 13.3895 10.8C12.7762 10.2667 11.9895 10 11.0295 10C10.2029 10 9.5362 10.2267 9.02953 10.68C8.52287 11.1067 8.26953 11.7333 8.26953 12.56C8.26953 13.4667 8.6962 14.1733 9.54953 14.68C10.4029 15.1867 11.7362 15.7333 13.5495 16.32C15.3629 16.9333 16.8295 17.52 17.9495 18.08C19.0962 18.64 20.0829 19.4533 20.9095 20.52C21.7362 21.5867 22.1495 22.96 22.1495 24.64C22.1495 26.24 21.7362 27.6933 20.9095 29C20.1095 30.3067 18.9362 31.3467 17.3895 32.12C15.8429 32.8933 14.0162 33.28 11.9095 33.28ZM29.7989 8.36C28.5989 8.36 27.6122 8.01333 26.8389 7.32C26.0922 6.6 25.7189 5.72 25.7189 4.68C25.7189 3.61333 26.0922 2.73333 26.8389 2.04C27.6122 1.32 28.5989 0.959998 29.7989 0.959998C30.9722 0.959998 31.9322 1.32 32.6789 2.04C33.4522 2.73333 33.8389 3.61333 33.8389 4.68C33.8389 5.72 33.4522 6.6 32.6789 7.32C31.9322 8.01333 30.9722 8.36 29.7989 8.36ZM33.1989 10.68V33H26.3589V10.68H33.1989ZM51.7558 10.44C54.3691 10.44 56.4491 11.2933 57.9958 13C59.5691 14.68 60.3558 17 60.3558 19.96V33H53.5558V20.88C53.5558 19.3867 53.1691 18.2267 52.3958 17.4C51.6224 16.5733 50.5824 16.16 49.2758 16.16C47.9691 16.16 46.9291 16.5733 46.1558 17.4C45.3824 18.2267 44.9958 19.3867 44.9958 20.88V33H38.1558V10.68H44.9958V13.64C45.6891 12.6533 46.6224 11.88 47.7958 11.32C48.9691 10.7333 50.2891 10.44 51.7558 10.44Z" fill="white"/>
<path d="M63.7489 21.8C63.7489 19.5067 64.1756 17.4933 65.0289 15.76C65.9089 14.0267 67.0956 12.6933 68.5889 11.76C70.0822 10.8267 71.7489 10.36 73.5889 10.36C75.0556 10.36 76.3889 10.6667 77.5889 11.28C78.8156 11.8933 79.7756 12.72 80.4689 13.76V3.4H87.3089V33H80.4689V29.8C79.8289 30.8667 78.9089 31.72 77.7089 32.36C76.5356 33 75.1622 33.32 73.5889 33.32C71.7489 33.32 70.0822 32.8533 68.5889 31.92C67.0956 30.96 65.9089 29.6133 65.0289 27.88C64.1756 26.12 63.7489 24.0933 63.7489 21.8ZM80.4689 21.84C80.4689 20.1333 79.9889 18.7867 79.0289 17.8C78.0956 16.8133 76.9489 16.32 75.5889 16.32C74.2289 16.32 73.0689 16.8133 72.1089 17.8C71.1756 18.76 70.7089 20.0933 70.7089 21.8C70.7089 23.5067 71.1756 24.8667 72.1089 25.88C73.0689 26.8667 74.2289 27.36 75.5889 27.36C76.9489 27.36 78.0956 26.8667 79.0289 25.88C79.9889 24.8933 80.4689 23.5467 80.4689 21.84ZM114.297 10.68V33H107.457V29.96C106.764 30.9467 105.817 31.7467 104.617 32.36C103.444 32.9467 102.137 33.24 100.697 33.24C98.9907 33.24 97.484 32.8667 96.1773 32.12C94.8707 31.3467 93.8573 30.24 93.1373 28.8C92.4173 27.36 92.0573 25.6667 92.0573 23.72V10.68H98.8573V22.8C98.8573 24.2933 99.244 25.4533 100.017 26.28C100.791 27.1067 101.831 27.52 103.137 27.52C104.471 27.52 105.524 27.1067 106.297 26.28C107.071 25.4533 107.457 24.2933 107.457 22.8V10.68H114.297Z" fill="#4285F4"/>
</svg>
